<mxfile host="app.diagrams.net" modified="2023-07-08T01:53:53.949Z" agent="Mozilla/5.0 (Windows NT 10.0; Win64; x64) AppleWebKit/537.36 (KHTML, like Gecko) Chrome/114.0.0.0 Safari/537.36" version="21.1.1" etag="2IIIoJXpaCB9HGKcwV_S" type="github">
  <diagram name="Page-1" id="yIZYWYnfeJd1UfbEpN03">
    <mxGraphModel>
      <root>
        <mxCell id="0" />
        <mxCell id="1" parent="0" />
      </root>
    </mxGraphModel>
  </diagram>
</mxfile>
